<svg width="27" height="25" viewBox="0 0 27 25" fill="none" xmlns="http://www.w3.org/2000/svg">
<rect width="27" height="25"/>
<path d="M2.44918 7.27458C-0.0105813 9.63781 0.168514 13.8063 2.84971 16.597C6.48699 20.3828 19 24.5 19 24.5C19 24.5 15.3854 11.8337 11.7481 8.0478C9.06687 5.25709 4.90894 4.91135 2.44918 7.27458Z" fill="#95D3D7"/>
<path d="M19 1C15.13 1 12 4.13 12 8C12 13.25 19 24.5 19 24.5C19 24.5 26 13.25 26 8C26 4.13 22.87 1 19 1ZM19 10.5C17.62 10.5 16.5 9.38 16.5 8C16.5 6.62 17.62 5.5 19 5.5C20.38 5.5 21.5 6.62 21.5 8C21.5 9.38 20.38 10.5 19 10.5Z" fill="#00B2BC"/>
</svg>
