<svg width="86" height="24" viewBox="0 0 86 24" fill="none" xmlns="http://www.w3.org/2000/svg">
<rect width="86" height="24" />
<path d="M2.44918 6.27458C-0.0105813 8.63782 0.168514 12.8063 2.84971 15.597C6.48699 19.3828 19 23.5 19 23.5C19 23.5 15.3854 10.8337 11.7481 7.0478C9.06687 4.25709 4.90894 3.91135 2.44918 6.27458Z" fill="#95D3D7"/>
<path d="M19 0C15.13 0 12 3.13 12 7C12 12.25 19 23.5 19 23.5C19 23.5 26 12.25 26 7C26 3.13 22.87 0 19 0ZM19 9.5C17.62 9.5 16.5 8.38 16.5 7C16.5 5.62 17.62 4.5 19 4.5C20.38 4.5 21.5 5.62 21.5 7C21.5 8.38 20.38 9.5 19 9.5Z" fill="#00B2BC"/>
<path d="M37.072 23.288C35.696 23.288 34.688 22.896 34.048 22.112C33.408 21.312 33.088 20.2 33.088 18.776V13.712H31.432V11.264L33.256 11.12L33.64 7.952H36.352V11.12H39.256V13.712H36.352V18.752C36.352 20.048 36.88 20.696 37.936 20.696C38.272 20.696 38.664 20.616 39.112 20.456L39.64 22.856C38.776 23.144 37.92 23.288 37.072 23.288Z" fill="#00B2BC"/>
<path d="M41.6554 11.12H44.3194L44.5594 13.208H44.6554C45.0714 12.44 45.5754 11.856 46.1674 11.456C46.7754 11.04 47.3914 10.832 48.0154 10.832C48.5754 10.832 49.0394 10.912 49.4074 11.072L48.8554 13.904C48.8074 13.888 48.6634 13.856 48.4234 13.808C48.1834 13.744 47.9114 13.712 47.6074 13.712C47.0954 13.712 46.5994 13.896 46.1194 14.264C45.6394 14.632 45.2394 15.208 44.9194 15.992V23H41.6554V11.12Z" fill="#00B2BC"/>
<path d="M54.559 23.288C53.311 23.288 52.383 22.88 51.775 22.064C51.183 21.232 50.887 20.048 50.887 18.512V11.12H54.151V18.104C54.151 18.968 54.279 19.584 54.535 19.952C54.791 20.304 55.199 20.48 55.759 20.48C56.223 20.48 56.615 20.376 56.935 20.168C57.271 19.944 57.639 19.576 58.039 19.064V11.12H61.303V23H58.639L58.399 21.32H58.303C57.759 21.96 57.191 22.448 56.599 22.784C56.007 23.12 55.327 23.288 54.559 23.288Z" fill="#00B2BC"/>
<path d="M69.8093 8.432C68.8813 8.432 68.4173 9.032 68.4173 10.232V11.12H70.6013V13.712H68.4173V23H65.1293V13.712H63.5453V11.264L65.1293 11.144V10.304C65.1293 8.96 65.4653 7.88 66.1373 7.064C66.8253 6.248 67.8973 5.84 69.3533 5.84C70.1853 5.84 70.9533 5.984 71.6573 6.272L71.0573 8.696C70.6253 8.52 70.2093 8.432 69.8093 8.432Z" fill="#00B2BC"/>
<path d="M77.8015 8.432C76.8735 8.432 76.4095 9.032 76.4095 10.232V11.12H78.5935V13.712H76.4095V23H73.1215V13.712H71.5375V11.264L73.1215 11.144V10.304C73.1215 8.96 73.4575 7.88 74.1295 7.064C74.8175 6.248 75.8895 5.84 77.3455 5.84C78.1775 5.84 78.9455 5.984 79.6495 6.272L79.0495 8.696C78.6175 8.52 78.2015 8.432 77.8015 8.432ZM83.6095 23.288C82.5375 23.288 81.7615 22.96 81.2815 22.304C80.8015 21.648 80.5615 20.72 80.5615 19.52V6.128H83.8255V19.664C83.8255 20 83.8895 20.248 84.0175 20.408C84.1455 20.552 84.2895 20.624 84.4495 20.624C84.6095 20.624 84.7535 20.608 84.8815 20.576L85.2895 23.024C84.8255 23.2 84.2655 23.288 83.6095 23.288Z" fill="#00B2BC"/>
</svg>
